<?xml version="1.0" standalone="no"?>
<!DOCTYPE svg PUBLIC "-//W3C//DTD SVG 20010904//EN"
 "http://www.w3.org/TR/2001/REC-SVG-20010904/DTD/svg10.dtd">
<svg version="1.0" xmlns="http://www.w3.org/2000/svg"
 width="358.000000pt" height="388.000000pt" viewBox="0 0 358.000000 388.000000"
 preserveAspectRatio="xMidYMid meet">

<g transform="translate(0.000000,388.000000) scale(0.100000,-0.100000)"
fill="#000000" stroke="none">
<path d="M1822 3127 c-7 -8 -10 -22 -6 -31 5 -12 21 -16 73 -16 77 0 144 -26
178 -68 31 -37 29 -7 -2 34 -47 62 -213 117 -243 81z"/>
<path d="M1135 3037 c-29 -14 -72 -48 -103 -81 -67 -74 -70 -105 -4 -43 61 57
103 78 167 86 45 5 50 8 50 31 0 21 -5 25 -30 28 -16 1 -53 -8 -80 -21z"/>
<path d="M1880 2770 c-29 -31 -50 -95 -50 -153 0 -29 6 -36 43 -57 71 -39 71
-38 17 -81 l-49 -39 14 -41 c44 -125 126 -182 183 -129 100 94 83 380 -31 498
-42 43 -88 44 -127 2z"/>
<path d="M1221 2714 c-35 -29 -64 -112 -59 -166 2 -27 12 -37 56 -64 l53 -31
-46 -37 c-51 -42 -54 -57 -24 -122 44 -92 109 -133 157 -97 40 30 60 70 72
145 23 145 -32 329 -114 379 -41 25 -59 24 -95 -7z"/>
<path d="M632 1820 c-175 -25 -338 -89 -446 -177 -68 -55 -140 -154 -157 -215
-17 -64 -8 -164 21 -223 22 -47 120 -155 140 -155 4 0 13 23 19 52 6 28 20 71
31 96 l20 45 -25 27 c-36 37 -42 87 -17 142 54 124 222 204 475 227 72 6 106
14 125 28 56 41 64 108 16 139 -29 20 -119 25 -202 14z"/>
<path d="M2440 1675 l0 -95 33 -20 c46 -29 121 -50 203 -57 106 -9 118 -3 132
58 7 28 12 66 12 85 l0 35 -42 -6 c-85 -13 -272 37 -309 81 -23 28 -29 12 -29
-81z"/>
<path d="M1430 1352 c0 -16 58 -58 116 -84 69 -31 190 -32 255 0 46 22 107 77
97 87 -3 3 -33 -3 -67 -15 -93 -31 -211 -26 -373 15 -18 5 -28 3 -28 -3z"/>
</g>
</svg>
